<?xml version="1.0" encoding="UTF-8" standalone="no"?>
<!-- Created with Inkscape (http://www.inkscape.org/) -->

<svg
   width="79.683411mm"
   height="92.450066mm"
   viewBox="0 0 79.683411 92.450066"
   version="1.1"
   id="svg1"
   xmlns="http://www.w3.org/2000/svg"
   xmlns:svg="http://www.w3.org/2000/svg">
  <defs
     id="defs1" />
  <path
     style="fill:#000000;stroke-width:0.2"
     d="m 43.458237,24.053461 c -0.0945,-0.46138 -0.18834,-0.8548 -0.20849,-0.87425 -0.0202,-0.0195 -0.42764,-0.10179 -0.905524,-0.18295 -0.653392,-0.11097 -0.830564,-0.15662 -0.714376,-0.18407 0.08498,-0.0201 0.464072,-0.10184 0.842426,-0.18169 0.378354,-0.0798 0.710194,-0.16529 0.737414,-0.18988 0.0272,-0.0246 0.11206,-0.432 0.18853,-0.90537 l 0.13902,-0.86067 0.067,0.29104 c 0.0369,0.16008 0.12252,0.54884 0.19032,0.86392 0.0678,0.31508 0.13359,0.58319 0.1462,0.5958 0.0126,0.0126 0.40678,0.0871 0.87595,0.16552 0.46916,0.0784 0.84757,0.14805 0.8409,0.15472 -0.007,0.007 -0.35701,0.0866 -0.77854,0.17758 -0.42154,0.091 -0.80531,0.17666 -0.85283,0.19035 -0.0673,0.0194 -0.11278,0.19667 -0.20604,0.80382 -0.0658,0.4284 -0.1355,0.82304 -0.1549,0.87696 -0.0216,0.0601 -0.10175,-0.22649 -0.20712,-0.74083 z"
     id="path2" />
  <path
     style="fill:#000000;stroke-width:0.2"
     d="m 37.567673,15.587191 c -0.0945,-0.46138 -0.18834,-0.8548 -0.20849,-0.87425 -0.0202,-0.0195 -0.42763,-0.10179 -0.90552,-0.18295 -0.65339,-0.11097 -0.83056,-0.15662 -0.71438,-0.18407 0.085,-0.0201 0.46408,-0.10184 0.84243,-0.18169 0.37836,-0.0798 0.7102,-0.16529 0.73742,-0.18988 0.0272,-0.0246 0.11205,-0.432 0.18853,-0.90537 l 0.13902,-0.86067 0.067,0.29104 c 0.0369,0.16008 0.12252,0.54884 0.19032,0.86392 0.0678,0.31508 0.13359,0.58319 0.1462,0.5958 0.0126,0.0126 0.40678,0.0871 0.87595,0.16552 0.46916,0.0784 0.84757,0.14805 0.8409,0.15472 -0.007,0.007 -0.35701,0.0866 -0.77854,0.17758 -0.42154,0.091 -0.80531,0.17666 -0.85283,0.19035 -0.0673,0.0194 -0.11278,0.19667 -0.20604,0.80382 -0.0658,0.4284 -0.1355,0.82304 -0.1549,0.87696 -0.0216,0.0601 -0.10175,-0.22649 -0.20712,-0.74083 z"
     id="path2-8" />
  <path
     style="fill:#000000;stroke-width:0.2"
     d="m 51.851567,3.3788819 c -0.0945,-0.461382 -0.18834,-0.854802 -0.20849,-0.874252 -0.0202,-0.0195 -0.42764,-0.10179 -0.90552,-0.18295 -0.65339,-0.11097 -0.83056,-0.15662 -0.71438,-0.18407 0.085,-0.0201 0.46408,-0.10184 0.84243,-0.18169 0.37835,-0.0798 0.71019,-0.16529 0.73741,-0.18988 0.0272,-0.0246 0.11206,-0.432 0.18853,-0.90536996 L 51.930567,0 l 0.067,0.29103997 c 0.0369,0.16008 0.12252,0.54883997 0.19032,0.86391993 0.0678,0.31508 0.13359,0.58319 0.1462,0.5958 0.0126,0.0126 0.40678,0.0871 0.87595,0.16552 0.46916,0.0784 0.84757,0.14805 0.8409,0.15472 -0.007,0.007 -0.35701,0.0866 -0.77854,0.17758 -0.42154,0.091 -0.80531,0.17666 -0.85283,0.19035 -0.0673,0.0194 -0.11278,0.19667 -0.20604,0.803822 -0.0658,0.4284 -0.1355,0.82304 -0.1549,0.87696 -0.0216,0.0601 -0.10175,-0.22649 -0.20712,-0.74083 z"
     id="path2-0" />
  <path
     style="fill:#000000;stroke-width:0.2"
     d="m 1.8616015,69.542591 c -0.0945,-0.46138 -0.18834,-0.8548 -0.20849,-0.87425 -0.0202,-0.0195 -0.42764,-0.10179 -0.90552015,-0.18295 -0.6534,-0.11097 -0.8305701,-0.15662 -0.7143801,-0.18407 0.085,-0.0201 0.46407,-0.10184 0.8424301,-0.18169 0.37835015,-0.0798 0.71019015,-0.16529 0.73741015,-0.18988 0.0272,-0.0246 0.11206,-0.432 0.18853,-0.90537 l 0.13902,-0.86067 0.067,0.29104 c 0.0369,0.16008 0.12252,0.54884 0.19032,0.86392 0.0678,0.31508 0.13359,0.58319 0.1462,0.5958 0.0126,0.0126 0.40678,0.0871 0.87595,0.16552 0.46916,0.0784 0.84757,0.14805 0.8409,0.15472 -0.007,0.007 -0.35701,0.0866 -0.77854,0.17758 -0.42154,0.091 -0.80531,0.17666 -0.85283,0.19035 -0.0673,0.0194 -0.11278,0.19667 -0.20604,0.80382 -0.0658,0.4284 -0.1355,0.82304 -0.1549,0.87696 -0.0216,0.0601 -0.10175,-0.22649 -0.20712,-0.74083 z"
     id="path2-5" />
  <path
     style="fill:#000000;stroke-width:0.2"
     d="m 30.010597,91.701341 c -0.0945,-0.46138 -0.18834,-0.8548 -0.20849,-0.87425 -0.0202,-0.0195 -0.42764,-0.10179 -0.905524,-0.18295 -0.653392,-0.11097 -0.830564,-0.15662 -0.714376,-0.18407 0.08498,-0.0201 0.464072,-0.10184 0.842426,-0.18169 0.378354,-0.0798 0.710194,-0.16529 0.737414,-0.18988 0.0272,-0.0246 0.11206,-0.432 0.18853,-0.90537 l 0.13902,-0.86067 0.067,0.29104 c 0.0369,0.16008 0.12252,0.54884 0.19032,0.86392 0.0678,0.31508 0.13359,0.58319 0.1462,0.5958 0.0126,0.0126 0.40678,0.0871 0.87595,0.16552 0.46916,0.0784 0.84757,0.14805 0.8409,0.15472 -0.007,0.007 -0.35701,0.0866 -0.77854,0.17758 -0.42154,0.091 -0.80531,0.17666 -0.85283,0.19035 -0.0673,0.0194 -0.11278,0.19667 -0.20604,0.80382 -0.0658,0.4284 -0.1355,0.82304 -0.1549,0.87696 -0.0216,0.0601 -0.10175,-0.22649 -0.20712,-0.74083 z"
     id="path2-89" />
  <path
     style="fill:#000000;stroke-width:0.2"
     d="m 60.076287,90.557771 c -0.0945,-0.46138 -0.18834,-0.8548 -0.20849,-0.87425 -0.0202,-0.0195 -0.42764,-0.10179 -0.90553,-0.18295 -0.65339,-0.11097 -0.83056,-0.15662 -0.71437,-0.18407 0.085,-0.0201 0.46407,-0.10184 0.84242,-0.18169 0.37836,-0.0798 0.7102,-0.16529 0.73742,-0.18988 0.0272,-0.0246 0.11206,-0.432 0.18853,-0.90537 l 0.13902,-0.86067 0.067,0.29104 c 0.0369,0.16008 0.12252,0.54884 0.19032,0.86392 0.0678,0.31508 0.13359,0.58319 0.1462,0.5958 0.0126,0.0126 0.40678,0.0871 0.87595,0.16552 0.46916,0.0784 0.84757,0.14805 0.8409,0.15472 -0.007,0.007 -0.35701,0.0866 -0.77854,0.17758 -0.42154,0.091 -0.80531,0.17666 -0.85283,0.19035 -0.0673,0.0194 -0.11278,0.19667 -0.20604,0.80382 -0.0658,0.4284 -0.1355,0.82304 -0.1549,0.87696 -0.0216,0.0601 -0.10175,-0.22649 -0.20712,-0.74083 z"
     id="path2-1" />
  <path
     style="fill:#000000;stroke-width:0.2"
     d="m 36.587842,55.154091 c -0.0945,-0.46138 -0.18834,-0.8548 -0.20849,-0.87425 -0.0202,-0.0195 -0.42764,-0.10179 -0.90553,-0.18295 -0.65339,-0.11097 -0.83056,-0.15662 -0.71437,-0.18407 0.085,-0.0201 0.46407,-0.10184 0.84242,-0.18169 0.37836,-0.0798 0.7102,-0.16529 0.73742,-0.18988 0.0272,-0.0246 0.11206,-0.432 0.18853,-0.90537 l 0.13902,-0.86067 0.067,0.29104 c 0.0369,0.16008 0.12252,0.54884 0.19032,0.86392 0.0678,0.31508 0.13359,0.58319 0.1462,0.5958 0.0126,0.0126 0.40678,0.0871 0.87595,0.16552 0.46916,0.0784 0.84757,0.14805 0.8409,0.15472 -0.007,0.007 -0.35701,0.0866 -0.77854,0.17758 -0.42154,0.091 -0.80531,0.17666 -0.85283,0.19035 -0.0673,0.0194 -0.11278,0.19667 -0.20604,0.80382 -0.0658,0.4284 -0.1355,0.82304 -0.1549,0.87696 -0.0216,0.0601 -0.10175,-0.22649 -0.20712,-0.74083 z"
     id="path2-19" />
  <path
     style="fill:#000000;stroke-width:0.2"
     d="m 24.289762,69.495171 c -0.0945,-0.46138 -0.18834,-0.8548 -0.20849,-0.87425 -0.0202,-0.0195 -0.42764,-0.10179 -0.90553,-0.18295 -0.65339,-0.11097 -0.83056,-0.15662 -0.71437,-0.18407 0.085,-0.0201 0.46407,-0.10184 0.84242,-0.18169 0.37836,-0.0798 0.7102,-0.16529 0.73742,-0.18988 0.0272,-0.0246 0.11206,-0.432 0.18853,-0.90537 l 0.13902,-0.86067 0.067,0.29104 c 0.0369,0.16008 0.12252,0.54884 0.19032,0.86392 0.0678,0.31508 0.13359,0.58319 0.1462,0.5958 0.0126,0.0126 0.40678,0.0871 0.87595,0.16552 0.46916,0.0784 0.84757,0.14805 0.8409,0.15472 -0.007,0.007 -0.35701,0.0866 -0.77854,0.17758 -0.42154,0.091 -0.80531,0.17666 -0.85283,0.19035 -0.0673,0.0194 -0.11278,0.19667 -0.20604,0.80382 -0.0658,0.4284 -0.1355,0.82304 -0.1549,0.87696 -0.0216,0.0601 -0.10175,-0.22649 -0.20712,-0.74083 z"
     id="path2-19-9" />
  <path
     style="fill:#000000;stroke-width:0.2"
     d="m 28.473142,51.103681 c -0.0945,-0.46138 -0.18834,-0.8548 -0.20849,-0.87425 -0.0202,-0.0195 -0.42764,-0.10179 -0.90553,-0.18295 -0.65339,-0.11097 -0.83056,-0.15662 -0.71437,-0.18407 0.085,-0.0201 0.46407,-0.10184 0.84242,-0.18169 0.37836,-0.0798 0.7102,-0.16529 0.73742,-0.18988 0.0272,-0.0246 0.11206,-0.432 0.18853,-0.90537 l 0.13902,-0.86067 0.067,0.29104 c 0.0369,0.16008 0.12252,0.54884 0.19032,0.86392 0.0678,0.31508 0.13359,0.58319 0.1462,0.5958 0.0126,0.0126 0.40678,0.0871 0.87595,0.16552 0.46916,0.0784 0.84757,0.14805 0.8409,0.15472 -0.007,0.007 -0.35701,0.0866 -0.77854,0.17758 -0.42154,0.091 -0.80531,0.17666 -0.85283,0.19035 -0.0673,0.0194 -0.11278,0.19667 -0.20604,0.80382 -0.0658,0.4284 -0.1355,0.82304 -0.1549,0.87696 -0.0216,0.0601 -0.10175,-0.22649 -0.20712,-0.74083 z"
     id="path2-4" />
  <path
     style="fill:#000000;stroke-width:0.36"
     d="m 26.263027,75.302551 c -0.1701,-0.83048 -0.339012,-1.53864 -0.375282,-1.57365 -0.03636,-0.035 -0.769752,-0.18322 -1.629954,-0.32931 -1.176102,-0.19975 -1.495008,-0.28191 -1.285866,-0.33133 0.153,-0.0362 0.835326,-0.18331 1.516356,-0.32704 0.681048,-0.14364 1.27836,-0.29752 1.327356,-0.34178 0.04896,-0.0443 0.201708,-0.7776 0.339354,-1.62967 l 0.250236,-1.5492 0.1206,0.52387 c 0.06642,0.28814 0.220536,0.98791 0.342576,1.55506 0.12204,0.56714 0.240462,1.04973 0.26316,1.07244 0.02268,0.0227 0.732204,0.15678 1.57671,0.29793 0.844488,0.14112 1.525626,0.26649 1.51362,0.2785 -0.0126,0.0126 -0.642618,0.15588 -1.401372,0.31965 -0.758772,0.1638 -1.449558,0.31798 -1.535094,0.34262 -0.12114,0.0349 -0.203004,0.35401 -0.370872,1.44687 -0.11844,0.77112 -0.2439,1.48147 -0.27882,1.57853 -0.03888,0.10812 -0.18315,-0.40767 -0.372816,-1.33349 z"
     id="path2-4-3" />
  <path
     style="fill:#000000;stroke-width:0.36"
     d="m 19.747782,61.642721 c -0.1701,-0.83048 -0.339012,-1.53864 -0.375282,-1.57365 -0.03636,-0.035 -0.769752,-0.18322 -1.629954,-0.32931 -1.176102,-0.19975 -1.495008,-0.28191 -1.285866,-0.33133 0.153,-0.0362 0.835326,-0.18331 1.516356,-0.32704 0.681048,-0.14364 1.27836,-0.29752 1.327356,-0.34178 0.04896,-0.0443 0.201708,-0.7776 0.339354,-1.62967 l 0.250236,-1.5492 0.1206,0.52387 c 0.06642,0.28814 0.220536,0.98791 0.342576,1.55506 0.12204,0.56714 0.240462,1.04973 0.26316,1.07244 0.02268,0.0227 0.732204,0.15678 1.57671,0.29793 0.844488,0.14112 1.525626,0.26649 1.51362,0.2785 -0.0126,0.0126 -0.642618,0.15588 -1.401372,0.31965 -0.758772,0.1638 -1.449558,0.31798 -1.535094,0.34262 -0.12114,0.0349 -0.203004,0.35401 -0.370872,1.44687 -0.11844,0.77112 -0.2439,1.48147 -0.27882,1.57853 -0.03888,0.10812 -0.18315,-0.40767 -0.372816,-1.33349 z"
     id="path2-4-3-1" />
  <path
     style="fill:#000000;stroke:none;stroke-width:0.36"
     d="m 75.724397,39.504931 c -0.1701,-0.83048 -0.33901,-1.53864 -0.37528,-1.57365 -0.0364,-0.035 -0.76976,-0.18322 -1.62996,-0.32931 -1.1761,-0.19975 -1.49501,-0.28191 -1.28586,-0.33133 0.153,-0.0362 0.83532,-0.18331 1.51635,-0.32704 0.68105,-0.14364 1.27836,-0.29752 1.32736,-0.34178 0.049,-0.0443 0.20171,-0.7776 0.33935,-1.62967 l 0.25024,-1.5492 0.1206,0.52387 c 0.0664,0.28814 0.22053,0.98791 0.34257,1.55506 0.12204,0.56714 0.24047,1.04973 0.26316,1.07244 0.0227,0.0227 0.73221,0.15678 1.57671,0.29793 0.84449,0.14112 1.52563,0.26649 1.51362,0.2785 -0.0126,0.0126 -0.64261,0.15588 -1.40137,0.31965 -0.75877,0.1638 -1.44956,0.31798 -1.53509,0.34262 -0.12114,0.0349 -0.20301,0.35401 -0.37087,1.44687 -0.11844,0.77112 -0.2439,1.48147 -0.27882,1.57853 -0.0389,0.10812 -0.18315,-0.40767 -0.37282,-1.33349 z"
     id="path2-4-3-7" />
  <path
     style="fill:#000000;stroke-width:0.2"
     d="m 57.146127,55.505791 c -0.0945,-0.46138 -0.18834,-0.8548 -0.20849,-0.87425 -0.0202,-0.0195 -0.42764,-0.10179 -0.90552,-0.18295 -0.6534,-0.11097 -0.83057,-0.15662 -0.71438,-0.18407 0.085,-0.0201 0.46407,-0.10184 0.84243,-0.18169 0.37835,-0.0798 0.71019,-0.16529 0.73741,-0.18988 0.0272,-0.0246 0.11206,-0.432 0.18853,-0.90537 l 0.13902,-0.86067 0.067,0.29104 c 0.0369,0.16008 0.12252,0.54884 0.19032,0.86392 0.0678,0.31508 0.13359,0.58319 0.1462,0.5958 0.0126,0.0126 0.40678,0.0871 0.87595,0.16552 0.46916,0.0784 0.84757,0.14805 0.8409,0.15472 -0.007,0.007 -0.35701,0.0866 -0.77854,0.17758 -0.42154,0.091 -0.80531,0.17666 -0.85283,0.19035 -0.0673,0.0194 -0.11278,0.19667 -0.20604,0.80382 -0.0658,0.4284 -0.1355,0.82304 -0.1549,0.87696 -0.0216,0.0601 -0.10175,-0.22649 -0.20712,-0.74083 z"
     id="path2-6" />
  <path
     style="fill:#000000;stroke-width:0.2"
     d="m 60.112517,39.789821 c -0.0945,-0.46138 -0.18834,-0.8548 -0.20849,-0.87425 -0.0202,-0.0195 -0.42764,-0.10179 -0.90552,-0.18295 -0.6534,-0.11097 -0.83057,-0.15662 -0.71438,-0.18407 0.085,-0.0201 0.46407,-0.10184 0.84243,-0.18169 0.37835,-0.0798 0.71019,-0.16529 0.73741,-0.18988 0.0272,-0.0246 0.11206,-0.432 0.18853,-0.90537 l 0.13902,-0.86067 0.067,0.29104 c 0.0369,0.16008 0.12252,0.54884 0.19032,0.86392 0.0678,0.31508 0.13359,0.58319 0.1462,0.5958 0.0126,0.0126 0.40678,0.0871 0.87595,0.16552 0.46916,0.0784 0.84757,0.14805 0.8409,0.15472 -0.007,0.007 -0.35701,0.0866 -0.77854,0.17758 -0.42154,0.091 -0.80531,0.17666 -0.85283,0.19035 -0.0673,0.0194 -0.11278,0.19667 -0.20604,0.80382 -0.0658,0.4284 -0.1355,0.82304 -0.1549,0.87696 -0.0216,0.0601 -0.10175,-0.22649 -0.20712,-0.74083 z"
     id="path2-6-5" />
  <path
     style="fill:#0000ff;fill-opacity:1;stroke:#000000;stroke-width:0.4752"
     d="m 55.297747,30.585371 c -0.0378,-0.10373 -0.19536,-1.09385 -0.34983,-2.20027 -0.15444,-1.10643 -0.31653,-2.05358 -0.3602,-2.10479 -0.0437,-0.0513 -0.46981,0.18791 -0.9469,0.53141 -0.47711,0.34349 -0.89015,0.60183 -0.91787,0.57411 -0.0277,-0.0277 0.23947,-0.4333 0.59376,-0.9013 0.4568,-0.60343 0.59726,-0.87483 0.48292,-0.93312 -0.0887,-0.0453 -1.17849,-0.24453 -2.42179,-0.44294 l -2.26053,-0.36076 2.34636,-0.38159 c 1.2905,-0.20986 2.37655,-0.41268 2.41346,-0.45068 0.037,-0.0381 -0.23937,-0.47649 -0.61394,-0.97441 -0.37458,-0.49791 -0.64603,-0.90531 -0.60324,-0.90531 0.0428,0 0.47137,0.28717 0.9524,0.63814 0.48104,0.35098 0.9161,0.59144 0.96681,0.53435 0.0507,-0.0572 0.2178,-1.00903 0.37133,-2.11545 0.29156,-2.10133 0.35083,-2.40233 0.4529,-2.30026 0.0582,0.0582 0.68081,4.00675 0.68485,4.34337 0.002,0.26972 0.21443,0.17765 1.08452,-0.47275 0.46348,-0.34645 0.86679,-0.60581 0.89627,-0.57633 0.0295,0.0295 -0.234,0.41952 -0.58547,0.86677 -0.3515,0.44725 -0.63907,0.87633 -0.63907,0.95352 0,0.0772 0.15559,0.1433 0.34576,0.14694 0.19017,0.004 1.27909,0.16393 2.41983,0.35619 l 2.07407,0.34957 -1.50828,0.22495 c -1.87611,0.27983 -3.20157,0.52545 -3.28486,0.60873 -0.035,0.035 0.21995,0.44957 0.56641,0.9214 0.34648,0.47184 0.60797,0.87985 0.58109,0.90672 -0.0268,0.0269 -0.39737,-0.21619 -0.82333,-0.54014 -0.42597,-0.32395 -0.84301,-0.6153 -0.92676,-0.64742 -0.10824,-0.0415 -0.23704,0.51484 -0.4453,1.92371 -0.32833,2.22092 -0.43969,2.71659 -0.54537,2.42764 z"
     id="path1" />
  <path
     style="fill:#000000;fill-rule:evenodd;stroke:#000000;stroke-width:0.15;stroke-linecap:butt;stroke-linejoin:miter;stroke-dasharray:none;stroke-dashoffset:0;stroke-opacity:1"
     d="M 30.517579,48.114941 51.602163,28.444204"
     id="path3" />
  <path
     style="fill:#000000;fill-rule:evenodd;stroke:#000000;stroke-width:0.15;stroke-linecap:butt;stroke-linejoin:miter;stroke-dasharray:none;stroke-dashoffset:0;stroke-opacity:1"
     d="m 21.619469,57.440221 5.508687,-5.99359"
     id="path4" />
  <path
     style="display:inline;fill:#000000;fill-rule:evenodd;stroke:#000000;stroke-width:0.15;stroke-linecap:butt;stroke-linejoin:miter;stroke-dasharray:none;stroke-dashoffset:0;stroke-opacity:1"
     d="M 16.503335,61.050091 4.5455555,66.955631"
     id="path5" />
  <path
     style="display:inline;fill:#000000;fill-rule:evenodd;stroke:#000000;stroke-width:0.15;stroke-linecap:butt;stroke-linejoin:miter;stroke-dasharray:none;stroke-dashoffset:0;stroke-opacity:1"
     d="m 27.553247,78.295144 2.127896,8.889903"
     id="path7" />
  <path
     style="fill:#000000;fill-rule:evenodd;stroke:#000000;stroke-width:0.15;stroke-linecap:butt;stroke-linejoin:miter;stroke-dasharray:none;stroke-dashoffset:0;stroke-opacity:1"
     d="M 32.202467,75.407309 56.151612,87.416091"
     id="path8" />
  <path
     style="display:inline;fill:#000000;fill-rule:evenodd;stroke:#000000;stroke-width:0.149469px;stroke-linecap:butt;stroke-linejoin:miter;stroke-dasharray:none;stroke-dashoffset:0;stroke-opacity:1"
     d="m 21.919099,61.721592 1.043356,4.462001"
     id="path9" />
  <path
     style="fill:#000000;fill-rule:evenodd;stroke:#000000;stroke-width:0.15;stroke-linecap:butt;stroke-linejoin:miter;stroke-dasharray:none;stroke-dashoffset:0;stroke-opacity:1"
     d="m 25.969589,66.515861 9.052416,-10.91208"
     id="path11" />
  <path
     style="fill:#000000;fill-rule:evenodd;stroke:#000000;stroke-width:0.15;stroke-linecap:butt;stroke-linejoin:miter;stroke-dasharray:none;stroke-dashoffset:0;stroke-opacity:1"
     d="M 38.494453,52.427611 58.099937,40.515621"
     id="path12" />
  <path
     style="fill:#000000;fill-rule:evenodd;stroke:#000000;stroke-width:0.15;stroke-linecap:butt;stroke-linejoin:miter;stroke-dasharray:none;stroke-dashoffset:0;stroke-opacity:1"
     d="m 57.773027,50.826531 1.87374,-9.24555"
     id="path13" />
  <path
     style="fill:#000000;fill-rule:evenodd;stroke:#000000;stroke-width:0.15;stroke-linecap:butt;stroke-linejoin:miter;stroke-dasharray:none;stroke-dashoffset:0;stroke-opacity:1"
     d="m 63.174227,38.370701 7.97321,-0.95628"
     id="path14" />
  <path
     style="fill:#000000;fill-rule:evenodd;stroke:#000000;stroke-width:0.15;stroke-linecap:butt;stroke-linejoin:miter;stroke-dasharray:none;stroke-dashoffset:0;stroke-opacity:1"
     d="M 59.762514,35.980393 57.557652,29.284149"
     id="path15" />
  <path
     style="fill:#000000;fill-rule:evenodd;stroke:#000000;stroke-width:0.127404px;stroke-linecap:butt;stroke-linejoin:miter;stroke-opacity:1"
     d="M 49.119111,23.721923 46.245768,22.886127"
     id="path16" />
  <path
     style="fill:#000000;fill-rule:evenodd;stroke:#000000;stroke-width:0.15;stroke-linecap:butt;stroke-linejoin:miter;stroke-dasharray:none;stroke-dashoffset:0;stroke-opacity:1"
     d="M 44.514877,20.042121 50.898317,3.9443119"
     id="path17" />
  <path
     style="fill:#000000;fill-rule:evenodd;stroke:#000000;stroke-width:0.15;stroke-linecap:butt;stroke-linejoin:miter;stroke-dasharray:none;stroke-dashoffset:0;stroke-opacity:1"
     d="M 49.963137,3.6523719 38.879436,12.117891"
     id="path18" />
  <path
     style="fill:#000000;fill-rule:evenodd;stroke:#000000;stroke-width:0.15;stroke-linecap:butt;stroke-linejoin:miter;stroke-dasharray:none;stroke-dashoffset:0;stroke-opacity:1"
     d="m 39.087945,16.157241 3.549112,4.81811"
     id="path19" />
</svg>
