<?xml version="1.0" encoding="UTF-8" standalone="no"?>
<!-- Created with Inkscape (http://www.inkscape.org/) -->

<svg
   width="4.0610504mm"
   height="4.1276093mm"
   viewBox="0 0 4.0610504 4.1276093"
   version="1.1"
   id="svg334"
   xmlns="http://www.w3.org/2000/svg"
   xmlns:svg="http://www.w3.org/2000/svg">
  <defs
     id="defs331" />
  <g
     id="layer1"
     transform="translate(-93.613543,-106.16501)">
    <path
       style="fill:#000000;stroke-width:0.2"
       d="m 95.475138,109.54389 c -0.0945,-0.46138 -0.18834,-0.8548 -0.20849,-0.87425 -0.0202,-0.0195 -0.42764,-0.10179 -0.90552,-0.18295 -0.65339,-0.11097 -0.83056,-0.15662 -0.71438,-0.18407 0.085,-0.0201 0.46408,-0.10184 0.84243,-0.18169 0.37835,-0.0798 0.71019,-0.16529 0.73741,-0.18988 0.0272,-0.0246 0.11206,-0.432 0.18853,-0.90537 l 0.13902,-0.86067 0.067,0.29104 c 0.0369,0.16008 0.12252,0.54884 0.19032,0.86392 0.0678,0.31508 0.13359,0.58319 0.1462,0.5958 0.0126,0.0126 0.40678,0.0871 0.87595,0.16552 0.46916,0.0784 0.84757,0.14805 0.8409,0.15472 -0.007,0.007 -0.35701,0.0866 -0.77854,0.17758 -0.42154,0.091 -0.80531,0.17666 -0.85283,0.19035 -0.0673,0.0194 -0.11278,0.19667 -0.20604,0.80382 -0.0658,0.4284 -0.1355,0.82304 -0.1549,0.87696 -0.0216,0.0601 -0.10175,-0.22649 -0.20712,-0.74083 z"
       id="path2-0" />
  </g>
</svg>
